<svg width="1500" height="227" viewBox="0 0 1500 227" fill="none" xmlns="http://www.w3.org/2000/svg">
<rect width="1500" height="227" rx="10" fill="url(#paint0_linear_40_10)"/>
<g filter="url(#filter0_d_40_10)">
<path d="M511.039 120.7C508.234 120.7 505.939 120.431 504.154 119.893C502.341 119.383 500.967 118.858 500.032 118.32L504.494 107.185C504.976 107.553 505.472 107.808 505.982 107.95C506.492 108.12 507.016 108.205 507.554 108.205C508.121 108.205 508.645 108.049 509.127 107.738C509.608 107.426 509.977 106.958 510.232 106.335C510.487 105.712 510.614 104.918 510.614 103.955V67.1075H525.659V106.038C525.659 108.758 525.149 111.223 524.129 113.433C523.109 115.643 521.522 117.399 519.369 118.703C517.216 120.034 514.439 120.7 511.039 120.7ZM518.222 61.7525C515.955 61.7525 514.014 60.945 512.399 59.33C510.812 57.715 510.019 55.7883 510.019 53.55C510.019 52.0483 510.387 50.6742 511.124 49.4275C511.861 48.1808 512.852 47.175 514.099 46.41C515.346 45.645 516.72 45.2625 518.222 45.2625C519.723 45.2625 521.097 45.645 522.344 46.41C523.619 47.1467 524.625 48.1383 525.362 49.385C526.127 50.6317 526.509 52.02 526.509 53.55C526.509 55.7883 525.702 57.715 524.087 59.33C522.472 60.945 520.517 61.7525 518.222 61.7525ZM547.995 82.705C547.995 85.1417 548.42 87.0967 549.27 88.57C550.12 90.015 551.636 90.7375 553.817 90.7375C556.027 90.7375 557.557 90.015 558.407 88.57C559.257 87.0967 559.682 85.1417 559.682 82.705V67.1075H574.472V84.235C574.472 88.0883 573.665 91.4317 572.05 94.265C570.435 97.07 568.083 99.2375 564.995 100.767C561.935 102.269 558.209 103.02 553.817 103.02C549.454 103.02 545.742 102.269 542.682 100.767C539.622 99.2375 537.271 97.07 535.627 94.265C534.012 91.4317 533.205 88.0883 533.205 84.235V67.1075H547.995V82.705ZM597.898 66.0875C600.334 66.0875 602.559 66.2858 604.57 66.6825C606.61 67.0792 608.296 67.5183 609.628 68C610.988 68.4533 611.838 68.8075 612.178 69.0625L607.46 77.8175C606.95 77.4492 605.959 76.9675 604.485 76.3725C603.04 75.7492 601.439 75.4375 599.683 75.4375C598.521 75.4375 597.558 75.5792 596.793 75.8625C596.056 76.1175 595.688 76.5708 595.688 77.2225C595.688 77.8458 596.127 78.37 597.005 78.795C597.884 79.1917 599.215 79.5458 601 79.8575C602.615 80.1692 604.315 80.6933 606.1 81.43C607.885 82.1383 609.387 83.2292 610.605 84.7025C611.852 86.1475 612.475 88.0883 612.475 90.525C612.475 93.1317 611.909 95.2567 610.775 96.9C609.642 98.515 608.154 99.7758 606.313 100.682C604.499 101.561 602.53 102.17 600.405 102.51C598.309 102.85 596.297 103.02 594.37 103.02C591.537 103.02 589.086 102.765 587.018 102.255C584.949 101.773 583.292 101.221 582.045 100.598C580.827 99.9742 579.991 99.4925 579.538 99.1525L584.17 89.42C584.907 90.015 586.097 90.695 587.74 91.46C589.412 92.225 591.14 92.6075 592.925 92.6075C594.512 92.6075 595.702 92.4375 596.495 92.0975C597.317 91.7292 597.728 91.2333 597.728 90.61C597.728 90.1283 597.529 89.7317 597.133 89.42C596.736 89.1083 596.155 88.825 595.39 88.57C594.625 88.315 593.662 88.0742 592.5 87.8475C591.452 87.6492 590.29 87.3233 589.015 86.87C587.74 86.3883 586.522 85.7225 585.36 84.8725C584.227 84.0225 583.278 82.9458 582.513 81.6425C581.776 80.3108 581.408 78.6958 581.408 76.7975C581.408 74.3608 582.201 72.3633 583.788 70.805C585.374 69.2183 587.414 68.0425 589.908 67.2775C592.429 66.4842 595.093 66.0875 597.898 66.0875ZM615.118 67.1075H620.728V52.785H635.603V67.1075H642.998V79.39H635.603V86.19C635.603 87.4083 635.759 88.4567 636.071 89.335C636.411 90.185 637.119 90.61 638.196 90.61C638.847 90.61 639.428 90.4683 639.938 90.185C640.448 89.8733 640.76 89.6608 640.873 89.5475L645.888 100.172C645.662 100.342 644.967 100.668 643.806 101.15C642.672 101.603 641.227 102.028 639.471 102.425C637.742 102.822 635.816 103.02 633.691 103.02C629.922 103.02 626.82 101.986 624.383 99.9175C621.947 97.8208 620.728 94.605 620.728 90.27V79.39H615.118V67.1075ZM659.019 103.02C656.695 103.02 654.698 102.198 653.026 100.555C651.383 98.8833 650.561 96.8858 650.561 94.5625C650.561 92.1825 651.383 90.1708 653.026 88.5275C654.698 86.8558 656.695 86.02 659.019 86.02C661.37 86.02 663.368 86.8558 665.011 88.5275C666.683 90.1708 667.519 92.1825 667.519 94.5625C667.519 96.8858 666.683 98.8833 665.011 100.555C663.368 102.198 661.37 103.02 659.019 103.02ZM712.251 102H697.206V67.1075H712.251V72.25H712.039C712.322 71.6267 712.889 70.8333 713.739 69.87C714.617 68.9067 715.836 68.0425 717.394 67.2775C718.981 66.4842 720.95 66.0875 723.301 66.0875C724.888 66.0875 726.39 66.3425 727.806 66.8525C729.223 67.3625 730.257 67.8583 730.909 68.34L725.129 80.5375C724.761 79.9992 724.066 79.4608 723.046 78.9225C722.026 78.3558 720.766 78.0725 719.264 78.0725C717.564 78.0725 716.19 78.455 715.141 79.22C714.121 79.9567 713.385 80.8775 712.931 81.9825C712.478 83.0875 712.251 84.15 712.251 85.17V102ZM745.388 87.5925C745.501 88.5275 745.87 89.3492 746.493 90.0575C747.145 90.7375 747.995 91.2758 749.043 91.6725C750.12 92.0408 751.381 92.225 752.826 92.225C754.242 92.225 755.574 92.1258 756.821 91.9275C758.067 91.7008 759.172 91.4033 760.136 91.035C761.127 90.6667 761.906 90.2558 762.473 89.8025L768.041 99.1525C767.417 99.6908 766.482 100.257 765.236 100.852C763.989 101.447 762.275 101.958 760.093 102.383C757.94 102.808 755.177 103.02 751.806 103.02C747.896 103.02 744.382 102.326 741.266 100.937C738.149 99.5492 735.684 97.4667 733.871 94.69C732.057 91.885 731.151 88.3858 731.151 84.1925C731.151 80.7925 731.916 77.7325 733.446 75.0125C734.976 72.2642 737.186 70.0967 740.076 68.51C742.966 66.895 746.465 66.0875 750.573 66.0875C754.511 66.0875 757.926 66.7817 760.816 68.17C763.706 69.53 765.93 71.5983 767.488 74.375C769.046 77.1517 769.826 80.665 769.826 84.915C769.826 85.1417 769.811 85.595 769.783 86.275C769.783 86.955 769.755 87.3942 769.698 87.5925H745.388ZM755.673 80.7925C755.645 79.8575 755.432 79.0217 755.036 78.285C754.667 77.5483 754.129 76.9675 753.421 76.5425C752.712 76.1175 751.848 75.905 750.828 75.905C749.836 75.905 748.958 76.1033 748.193 76.5C747.428 76.8967 746.833 77.4633 746.408 78.2C745.983 78.9083 745.742 79.7725 745.686 80.7925H755.673ZM790.892 102H775.804V43.52H790.892V102ZM810.798 87.5925C810.912 88.5275 811.28 89.3492 811.903 90.0575C812.555 90.7375 813.405 91.2758 814.453 91.6725C815.53 92.0408 816.791 92.225 818.236 92.225C819.652 92.225 820.984 92.1258 822.231 91.9275C823.477 91.7008 824.582 91.4033 825.546 91.035C826.537 90.6667 827.317 90.2558 827.883 89.8025L833.451 99.1525C832.827 99.6908 831.892 100.257 830.646 100.852C829.399 101.447 827.685 101.958 825.503 102.383C823.35 102.808 820.587 103.02 817.216 103.02C813.306 103.02 809.792 102.326 806.676 100.937C803.559 99.5492 801.094 97.4667 799.281 94.69C797.467 91.885 796.561 88.3858 796.561 84.1925C796.561 80.7925 797.326 77.7325 798.856 75.0125C800.386 72.2642 802.596 70.0967 805.486 68.51C808.376 66.895 811.875 66.0875 815.983 66.0875C819.922 66.0875 823.336 66.7817 826.226 68.17C829.116 69.53 831.34 71.5983 832.898 74.375C834.457 77.1517 835.236 80.665 835.236 84.915C835.236 85.1417 835.222 85.595 835.193 86.275C835.193 86.955 835.165 87.3942 835.108 87.5925H810.798ZM821.083 80.7925C821.055 79.8575 820.842 79.0217 820.446 78.285C820.077 77.5483 819.539 76.9675 818.831 76.5425C818.122 76.1175 817.258 75.905 816.238 75.905C815.247 75.905 814.368 76.1033 813.603 76.5C812.838 76.8967 812.243 77.4633 811.818 78.2C811.393 78.9083 811.152 79.7725 811.096 80.7925H821.083ZM868.074 102V96.7725C867.791 97.3108 867.153 98.09 866.162 99.11C865.17 100.102 863.853 101.008 862.209 101.83C860.594 102.623 858.696 103.02 856.514 103.02C853.058 103.02 850.068 102.17 847.547 100.47C845.025 98.77 843.07 96.5175 841.682 93.7125C840.322 90.9075 839.642 87.8617 839.642 84.575C839.642 81.2883 840.322 78.2425 841.682 75.4375C843.07 72.6325 845.025 70.38 847.547 68.68C850.068 66.9517 853.058 66.0875 856.514 66.0875C858.583 66.0875 860.382 66.3992 861.912 67.0225C863.47 67.6458 864.745 68.3825 865.737 69.2325C866.757 70.0825 867.479 70.89 867.904 71.655V67.1075H882.864V102H868.074ZM854.389 84.575C854.389 85.8217 854.687 86.9692 855.282 88.0175C855.877 89.0375 856.684 89.845 857.704 90.44C858.724 91.035 859.886 91.3325 861.189 91.3325C862.493 91.3325 863.64 91.035 864.632 90.44C865.652 89.845 866.445 89.0375 867.012 88.0175C867.607 86.9692 867.904 85.8217 867.904 84.575C867.904 83.3283 867.607 82.195 867.012 81.175C866.445 80.1267 865.652 79.305 864.632 78.71C863.64 78.0867 862.493 77.775 861.189 77.775C859.886 77.775 858.724 78.0867 857.704 78.71C856.684 79.305 855.877 80.1267 855.282 81.175C854.687 82.195 854.389 83.3283 854.389 84.575ZM907.102 66.0875C909.539 66.0875 911.763 66.2858 913.774 66.6825C915.814 67.0792 917.5 67.5183 918.832 68C920.192 68.4533 921.042 68.8075 921.382 69.0625L916.664 77.8175C916.154 77.4492 915.163 76.9675 913.689 76.3725C912.244 75.7492 910.644 75.4375 908.887 75.4375C907.725 75.4375 906.762 75.5792 905.997 75.8625C905.26 76.1175 904.892 76.5708 904.892 77.2225C904.892 77.8458 905.331 78.37 906.209 78.795C907.088 79.1917 908.419 79.5458 910.204 79.8575C911.819 80.1692 913.519 80.6933 915.304 81.43C917.089 82.1383 918.591 83.2292 919.809 84.7025C921.056 86.1475 921.679 88.0883 921.679 90.525C921.679 93.1317 921.113 95.2567 919.979 96.9C918.846 98.515 917.359 99.7758 915.517 100.682C913.704 101.561 911.734 102.17 909.609 102.51C907.513 102.85 905.501 103.02 903.574 103.02C900.741 103.02 898.29 102.765 896.222 102.255C894.154 101.773 892.496 101.221 891.249 100.598C890.031 99.9742 889.195 99.4925 888.742 99.1525L893.374 89.42C894.111 90.015 895.301 90.695 896.944 91.46C898.616 92.225 900.344 92.6075 902.129 92.6075C903.716 92.6075 904.906 92.4375 905.699 92.0975C906.521 91.7292 906.932 91.2333 906.932 90.61C906.932 90.1283 906.734 89.7317 906.337 89.42C905.94 89.1083 905.359 88.825 904.594 88.57C903.829 88.315 902.866 88.0742 901.704 87.8475C900.656 87.6492 899.494 87.3233 898.219 86.87C896.944 86.3883 895.726 85.7225 894.564 84.8725C893.431 84.0225 892.482 82.9458 891.717 81.6425C890.98 80.3108 890.612 78.6958 890.612 76.7975C890.612 74.3608 891.405 72.3633 892.992 70.805C894.579 69.2183 896.619 68.0425 899.112 67.2775C901.634 66.4842 904.297 66.0875 907.102 66.0875ZM940.373 87.5925C940.487 88.5275 940.855 89.3492 941.478 90.0575C942.13 90.7375 942.98 91.2758 944.028 91.6725C945.105 92.0408 946.366 92.225 947.811 92.225C949.228 92.225 950.559 92.1258 951.806 91.9275C953.053 91.7008 954.158 91.4033 955.121 91.035C956.113 90.6667 956.892 90.2558 957.458 89.8025L963.026 99.1525C962.403 99.6908 961.468 100.257 960.221 100.852C958.974 101.447 957.26 101.958 955.078 102.383C952.925 102.808 950.163 103.02 946.791 103.02C942.881 103.02 939.368 102.326 936.251 100.937C933.134 99.5492 930.669 97.4667 928.856 94.69C927.043 91.885 926.136 88.3858 926.136 84.1925C926.136 80.7925 926.901 77.7325 928.431 75.0125C929.961 72.2642 932.171 70.0967 935.061 68.51C937.951 66.895 941.45 66.0875 945.558 66.0875C949.497 66.0875 952.911 66.7817 955.801 68.17C958.691 69.53 960.915 71.5983 962.473 74.375C964.032 77.1517 964.811 80.665 964.811 84.915C964.811 85.1417 964.797 85.595 964.768 86.275C964.768 86.955 964.74 87.3942 964.683 87.5925H940.373ZM950.658 80.7925C950.63 79.8575 950.418 79.0217 950.021 78.285C949.653 77.5483 949.114 76.9675 948.406 76.5425C947.698 76.1175 946.833 75.905 945.813 75.905C944.822 75.905 943.943 76.1033 943.178 76.5C942.413 76.8967 941.818 77.4633 941.393 78.2C940.968 78.9083 940.728 79.7725 940.671 80.7925H950.658ZM979.927 103.02C977.604 103.02 975.606 102.198 973.934 100.555C972.291 98.8833 971.469 96.8858 971.469 94.5625C971.469 92.1825 972.291 90.1708 973.934 88.5275C975.606 86.8558 977.604 86.02 979.927 86.02C982.279 86.02 984.276 86.8558 985.919 88.5275C987.591 90.1708 988.427 92.1825 988.427 94.5625C988.427 96.8858 987.591 98.8833 985.919 100.555C984.276 102.198 982.279 103.02 979.927 103.02Z" fill="url(#paint1_linear_40_10)"/>
</g>
<path d="M448.817 173.8C447.497 173.8 446.417 173.673 445.577 173.42C444.724 173.18 444.077 172.933 443.637 172.68L445.737 167.44C445.964 167.613 446.197 167.733 446.437 167.8C446.677 167.88 446.924 167.92 447.177 167.92C447.444 167.92 447.691 167.847 447.917 167.7C448.144 167.553 448.317 167.333 448.437 167.04C448.557 166.747 448.617 166.373 448.617 165.92V148.58H455.697V166.9C455.697 168.18 455.457 169.34 454.977 170.38C454.497 171.42 453.751 172.247 452.737 172.86C451.724 173.487 450.417 173.8 448.817 173.8ZM452.197 146.06C451.131 146.06 450.217 145.68 449.457 144.92C448.711 144.16 448.337 143.253 448.337 142.2C448.337 141.493 448.511 140.847 448.857 140.26C449.204 139.673 449.671 139.2 450.257 138.84C450.844 138.48 451.491 138.3 452.197 138.3C452.904 138.3 453.551 138.48 454.137 138.84C454.737 139.187 455.211 139.653 455.557 140.24C455.917 140.827 456.097 141.48 456.097 142.2C456.097 143.253 455.717 144.16 454.957 144.92C454.197 145.68 453.277 146.06 452.197 146.06ZM466.208 155.92C466.208 157.067 466.408 157.987 466.808 158.68C467.208 159.36 467.922 159.7 468.948 159.7C469.988 159.7 470.708 159.36 471.108 158.68C471.508 157.987 471.708 157.067 471.708 155.92V148.58H478.668V156.64C478.668 158.453 478.288 160.027 477.528 161.36C476.768 162.68 475.662 163.7 474.208 164.42C472.768 165.127 471.015 165.48 468.948 165.48C466.895 165.48 465.148 165.127 463.708 164.42C462.268 163.7 461.162 162.68 460.388 161.36C459.628 160.027 459.248 158.453 459.248 156.64V148.58H466.208V155.92ZM489.692 148.1C490.839 148.1 491.885 148.193 492.832 148.38C493.792 148.567 494.585 148.773 495.212 149C495.852 149.213 496.252 149.38 496.412 149.5L494.192 153.62C493.952 153.447 493.485 153.22 492.792 152.94C492.112 152.647 491.359 152.5 490.532 152.5C489.985 152.5 489.532 152.567 489.172 152.7C488.825 152.82 488.652 153.033 488.652 153.34C488.652 153.633 488.859 153.88 489.272 154.08C489.685 154.267 490.312 154.433 491.152 154.58C491.912 154.727 492.712 154.973 493.552 155.32C494.392 155.653 495.099 156.167 495.672 156.86C496.259 157.54 496.552 158.453 496.552 159.6C496.552 160.827 496.285 161.827 495.752 162.6C495.219 163.36 494.519 163.953 493.652 164.38C492.799 164.793 491.872 165.08 490.872 165.24C489.885 165.4 488.939 165.48 488.032 165.48C486.699 165.48 485.545 165.36 484.572 165.12C483.599 164.893 482.819 164.633 482.232 164.34C481.659 164.047 481.265 163.82 481.052 163.66L483.232 159.08C483.579 159.36 484.139 159.68 484.912 160.04C485.699 160.4 486.512 160.58 487.352 160.58C488.099 160.58 488.659 160.5 489.032 160.34C489.419 160.167 489.612 159.933 489.612 159.64C489.612 159.413 489.519 159.227 489.332 159.08C489.145 158.933 488.872 158.8 488.512 158.68C488.152 158.56 487.699 158.447 487.152 158.34C486.659 158.247 486.112 158.093 485.512 157.88C484.912 157.653 484.339 157.34 483.792 156.94C483.259 156.54 482.812 156.033 482.452 155.42C482.105 154.793 481.932 154.033 481.932 153.14C481.932 151.993 482.305 151.053 483.052 150.32C483.799 149.573 484.759 149.02 485.932 148.66C487.119 148.287 488.372 148.1 489.692 148.1ZM497.796 148.58H500.436V141.84H507.436V148.58H510.916V154.36H507.436V157.56C507.436 158.133 507.509 158.627 507.656 159.04C507.816 159.44 508.149 159.64 508.656 159.64C508.962 159.64 509.236 159.573 509.476 159.44C509.716 159.293 509.862 159.193 509.916 159.14L512.276 164.14C512.169 164.22 511.842 164.373 511.296 164.6C510.762 164.813 510.082 165.013 509.256 165.2C508.442 165.387 507.536 165.48 506.536 165.48C504.762 165.48 503.302 164.993 502.156 164.02C501.009 163.033 500.436 161.52 500.436 159.48V154.36H497.796V148.58ZM531.474 165H524.394V148.58H531.474V151H531.374C531.508 150.707 531.774 150.333 532.174 149.88C532.588 149.427 533.161 149.02 533.894 148.66C534.641 148.287 535.568 148.1 536.674 148.1C537.421 148.1 538.128 148.22 538.794 148.46C539.461 148.7 539.948 148.933 540.254 149.16L537.534 154.9C537.361 154.647 537.034 154.393 536.554 154.14C536.074 153.873 535.481 153.74 534.774 153.74C533.974 153.74 533.328 153.92 532.834 154.28C532.354 154.627 532.008 155.06 531.794 155.58C531.581 156.1 531.474 156.6 531.474 157.08V165ZM547.068 158.22C547.121 158.66 547.295 159.047 547.588 159.38C547.895 159.7 548.295 159.953 548.788 160.14C549.295 160.313 549.888 160.4 550.568 160.4C551.235 160.4 551.861 160.353 552.448 160.26C553.035 160.153 553.555 160.013 554.008 159.84C554.475 159.667 554.841 159.473 555.108 159.26L557.728 163.66C557.435 163.913 556.995 164.18 556.408 164.46C555.821 164.74 555.015 164.98 553.988 165.18C552.975 165.38 551.675 165.48 550.088 165.48C548.248 165.48 546.595 165.153 545.128 164.5C543.661 163.847 542.501 162.867 541.648 161.56C540.795 160.24 540.368 158.593 540.368 156.62C540.368 155.02 540.728 153.58 541.448 152.3C542.168 151.007 543.208 149.987 544.568 149.24C545.928 148.48 547.575 148.1 549.508 148.1C551.361 148.1 552.968 148.427 554.328 149.08C555.688 149.72 556.735 150.693 557.468 152C558.201 153.307 558.568 154.96 558.568 156.96C558.568 157.067 558.561 157.28 558.548 157.6C558.548 157.92 558.535 158.127 558.508 158.22H547.068ZM551.908 155.02C551.895 154.58 551.795 154.187 551.608 153.84C551.435 153.493 551.181 153.22 550.848 153.02C550.515 152.82 550.108 152.72 549.628 152.72C549.161 152.72 548.748 152.813 548.388 153C548.028 153.187 547.748 153.453 547.548 153.8C547.348 154.133 547.235 154.54 547.208 155.02H551.908ZM568.481 165H561.381V137.48H568.481V165ZM577.849 158.22C577.903 158.66 578.076 159.047 578.369 159.38C578.676 159.7 579.076 159.953 579.569 160.14C580.076 160.313 580.669 160.4 581.349 160.4C582.016 160.4 582.643 160.353 583.229 160.26C583.816 160.153 584.336 160.013 584.789 159.84C585.256 159.667 585.623 159.473 585.889 159.26L588.509 163.66C588.216 163.913 587.776 164.18 587.189 164.46C586.603 164.74 585.796 164.98 584.769 165.18C583.756 165.38 582.456 165.48 580.869 165.48C579.029 165.48 577.376 165.153 575.909 164.5C574.443 163.847 573.283 162.867 572.429 161.56C571.576 160.24 571.149 158.593 571.149 156.62C571.149 155.02 571.509 153.58 572.229 152.3C572.949 151.007 573.989 149.987 575.349 149.24C576.709 148.48 578.356 148.1 580.289 148.1C582.143 148.1 583.749 148.427 585.109 149.08C586.469 149.72 587.516 150.693 588.249 152C588.983 153.307 589.349 154.96 589.349 156.96C589.349 157.067 589.343 157.28 589.329 157.6C589.329 157.92 589.316 158.127 589.289 158.22H577.849ZM582.689 155.02C582.676 154.58 582.576 154.187 582.389 153.84C582.216 153.493 581.963 153.22 581.629 153.02C581.296 152.82 580.889 152.72 580.409 152.72C579.943 152.72 579.529 152.813 579.169 153C578.809 153.187 578.529 153.453 578.329 153.8C578.129 154.133 578.016 154.54 577.989 155.02H582.689ZM604.803 165V162.54C604.669 162.793 604.369 163.16 603.903 163.64C603.436 164.107 602.816 164.533 602.043 164.92C601.283 165.293 600.389 165.48 599.363 165.48C597.736 165.48 596.329 165.08 595.143 164.28C593.956 163.48 593.036 162.42 592.383 161.1C591.743 159.78 591.423 158.347 591.423 156.8C591.423 155.253 591.743 153.82 592.383 152.5C593.036 151.18 593.956 150.12 595.143 149.32C596.329 148.507 597.736 148.1 599.363 148.1C600.336 148.1 601.183 148.247 601.903 148.54C602.636 148.833 603.236 149.18 603.703 149.58C604.183 149.98 604.523 150.36 604.723 150.72V148.58H611.763V165H604.803ZM598.363 156.8C598.363 157.387 598.503 157.927 598.783 158.42C599.063 158.9 599.443 159.28 599.923 159.56C600.403 159.84 600.949 159.98 601.563 159.98C602.176 159.98 602.716 159.84 603.183 159.56C603.663 159.28 604.036 158.9 604.303 158.42C604.583 157.927 604.723 157.387 604.723 156.8C604.723 156.213 604.583 155.68 604.303 155.2C604.036 154.707 603.663 154.32 603.183 154.04C602.716 153.747 602.176 153.6 601.563 153.6C600.949 153.6 600.403 153.747 599.923 154.04C599.443 154.32 599.063 154.707 598.783 155.2C598.503 155.68 598.363 156.213 598.363 156.8ZM623.169 148.1C624.315 148.1 625.362 148.193 626.309 148.38C627.269 148.567 628.062 148.773 628.689 149C629.329 149.213 629.729 149.38 629.889 149.5L627.669 153.62C627.429 153.447 626.962 153.22 626.269 152.94C625.589 152.647 624.835 152.5 624.009 152.5C623.462 152.5 623.009 152.567 622.649 152.7C622.302 152.82 622.129 153.033 622.129 153.34C622.129 153.633 622.335 153.88 622.749 154.08C623.162 154.267 623.789 154.433 624.629 154.58C625.389 154.727 626.189 154.973 627.029 155.32C627.869 155.653 628.575 156.167 629.149 156.86C629.735 157.54 630.029 158.453 630.029 159.6C630.029 160.827 629.762 161.827 629.229 162.6C628.695 163.36 627.995 163.953 627.129 164.38C626.275 164.793 625.349 165.08 624.349 165.24C623.362 165.4 622.415 165.48 621.509 165.48C620.175 165.48 619.022 165.36 618.049 165.12C617.075 164.893 616.295 164.633 615.709 164.34C615.135 164.047 614.742 163.82 614.529 163.66L616.709 159.08C617.055 159.36 617.615 159.68 618.389 160.04C619.175 160.4 619.989 160.58 620.829 160.58C621.575 160.58 622.135 160.5 622.509 160.34C622.895 160.167 623.089 159.933 623.089 159.64C623.089 159.413 622.995 159.227 622.809 159.08C622.622 158.933 622.349 158.8 621.989 158.68C621.629 158.56 621.175 158.447 620.629 158.34C620.135 158.247 619.589 158.093 618.989 157.88C618.389 157.653 617.815 157.34 617.269 156.94C616.735 156.54 616.289 156.033 615.929 155.42C615.582 154.793 615.409 154.033 615.409 153.14C615.409 151.993 615.782 151.053 616.529 150.32C617.275 149.573 618.235 149.02 619.409 148.66C620.595 148.287 621.849 148.1 623.169 148.1ZM638.826 158.22C638.879 158.66 639.052 159.047 639.346 159.38C639.652 159.7 640.052 159.953 640.546 160.14C641.052 160.313 641.646 160.4 642.326 160.4C642.992 160.4 643.619 160.353 644.206 160.26C644.792 160.153 645.312 160.013 645.766 159.84C646.232 159.667 646.599 159.473 646.866 159.26L649.486 163.66C649.192 163.913 648.752 164.18 648.166 164.46C647.579 164.74 646.772 164.98 645.746 165.18C644.732 165.38 643.432 165.48 641.846 165.48C640.006 165.48 638.352 165.153 636.886 164.5C635.419 163.847 634.259 162.867 633.406 161.56C632.552 160.24 632.126 158.593 632.126 156.62C632.126 155.02 632.486 153.58 633.206 152.3C633.926 151.007 634.966 149.987 636.326 149.24C637.686 148.48 639.332 148.1 641.266 148.1C643.119 148.1 644.726 148.427 646.086 149.08C647.446 149.72 648.492 150.693 649.226 152C649.959 153.307 650.326 154.96 650.326 156.96C650.326 157.067 650.319 157.28 650.306 157.6C650.306 157.92 650.292 158.127 650.266 158.22H638.826ZM643.666 155.02C643.652 154.58 643.552 154.187 643.366 153.84C643.192 153.493 642.939 153.22 642.606 153.02C642.272 152.82 641.866 152.72 641.386 152.72C640.919 152.72 640.506 152.813 640.146 153C639.786 153.187 639.506 153.453 639.306 153.8C639.106 154.133 638.992 154.54 638.966 155.02H643.666ZM657.439 165.48C656.346 165.48 655.406 165.093 654.619 164.32C653.846 163.533 653.459 162.593 653.459 161.5C653.459 160.38 653.846 159.433 654.619 158.66C655.406 157.873 656.346 157.48 657.439 157.48C658.546 157.48 659.486 157.873 660.259 158.66C661.046 159.433 661.439 160.38 661.439 161.5C661.439 162.593 661.046 163.533 660.259 164.32C659.486 165.093 658.546 165.48 657.439 165.48ZM676.63 173.8C675.31 173.8 674.23 173.673 673.39 173.42C672.537 173.18 671.89 172.933 671.45 172.68L673.55 167.44C673.777 167.613 674.01 167.733 674.25 167.8C674.49 167.88 674.737 167.92 674.99 167.92C675.257 167.92 675.503 167.847 675.73 167.7C675.957 167.553 676.13 167.333 676.25 167.04C676.37 166.747 676.43 166.373 676.43 165.92V148.58H683.51V166.9C683.51 168.18 683.27 169.34 682.79 170.38C682.31 171.42 681.563 172.247 680.55 172.86C679.537 173.487 678.23 173.8 676.63 173.8ZM680.01 146.06C678.943 146.06 678.03 145.68 677.27 144.92C676.523 144.16 676.15 143.253 676.15 142.2C676.15 141.493 676.323 140.847 676.67 140.26C677.017 139.673 677.483 139.2 678.07 138.84C678.657 138.48 679.303 138.3 680.01 138.3C680.717 138.3 681.363 138.48 681.95 138.84C682.55 139.187 683.023 139.653 683.37 140.24C683.73 140.827 683.91 141.48 683.91 142.2C683.91 143.253 683.53 144.16 682.77 144.92C682.01 145.68 681.09 146.06 680.01 146.06ZM694.021 155.92C694.021 157.067 694.221 157.987 694.621 158.68C695.021 159.36 695.734 159.7 696.761 159.7C697.801 159.7 698.521 159.36 698.921 158.68C699.321 157.987 699.521 157.067 699.521 155.92V148.58H706.481V156.64C706.481 158.453 706.101 160.027 705.341 161.36C704.581 162.68 703.474 163.7 702.021 164.42C700.581 165.127 698.827 165.48 696.761 165.48C694.707 165.48 692.961 165.127 691.521 164.42C690.081 163.7 688.974 162.68 688.201 161.36C687.441 160.027 687.061 158.453 687.061 156.64V148.58H694.021V155.92ZM717.505 148.1C718.651 148.1 719.698 148.193 720.645 148.38C721.605 148.567 722.398 148.773 723.025 149C723.665 149.213 724.065 149.38 724.225 149.5L722.005 153.62C721.765 153.447 721.298 153.22 720.605 152.94C719.925 152.647 719.171 152.5 718.345 152.5C717.798 152.5 717.345 152.567 716.985 152.7C716.638 152.82 716.465 153.033 716.465 153.34C716.465 153.633 716.671 153.88 717.085 154.08C717.498 154.267 718.125 154.433 718.965 154.58C719.725 154.727 720.525 154.973 721.365 155.32C722.205 155.653 722.911 156.167 723.485 156.86C724.071 157.54 724.365 158.453 724.365 159.6C724.365 160.827 724.098 161.827 723.565 162.6C723.031 163.36 722.331 163.953 721.465 164.38C720.611 164.793 719.685 165.08 718.685 165.24C717.698 165.4 716.751 165.48 715.845 165.48C714.511 165.48 713.358 165.36 712.385 165.12C711.411 164.893 710.631 164.633 710.045 164.34C709.471 164.047 709.078 163.82 708.865 163.66L711.045 159.08C711.391 159.36 711.951 159.68 712.725 160.04C713.511 160.4 714.325 160.58 715.165 160.58C715.911 160.58 716.471 160.5 716.845 160.34C717.231 160.167 717.425 159.933 717.425 159.64C717.425 159.413 717.331 159.227 717.145 159.08C716.958 158.933 716.685 158.8 716.325 158.68C715.965 158.56 715.511 158.447 714.965 158.34C714.471 158.247 713.925 158.093 713.325 157.88C712.725 157.653 712.151 157.34 711.605 156.94C711.071 156.54 710.625 156.033 710.265 155.42C709.918 154.793 709.745 154.033 709.745 153.14C709.745 151.993 710.118 151.053 710.865 150.32C711.611 149.573 712.571 149.02 713.745 148.66C714.931 148.287 716.185 148.1 717.505 148.1ZM725.608 148.58H728.248V141.84H735.248V148.58H738.728V154.36H735.248V157.56C735.248 158.133 735.322 158.627 735.468 159.04C735.628 159.44 735.962 159.64 736.468 159.64C736.775 159.64 737.048 159.573 737.288 159.44C737.528 159.293 737.675 159.193 737.728 159.14L740.088 164.14C739.982 164.22 739.655 164.373 739.108 164.6C738.575 164.813 737.895 165.013 737.068 165.2C736.255 165.387 735.348 165.48 734.348 165.48C732.575 165.48 731.115 164.993 729.968 164.02C728.822 163.033 728.248 161.52 728.248 159.48V154.36H725.608V148.58ZM760.747 148.1C761.893 148.1 762.94 148.193 763.887 148.38C764.847 148.567 765.64 148.773 766.267 149C766.907 149.213 767.307 149.38 767.467 149.5L765.247 153.62C765.007 153.447 764.54 153.22 763.847 152.94C763.167 152.647 762.413 152.5 761.587 152.5C761.04 152.5 760.587 152.567 760.227 152.7C759.88 152.82 759.707 153.033 759.707 153.34C759.707 153.633 759.913 153.88 760.327 154.08C760.74 154.267 761.367 154.433 762.207 154.58C762.967 154.727 763.767 154.973 764.607 155.32C765.447 155.653 766.153 156.167 766.727 156.86C767.313 157.54 767.607 158.453 767.607 159.6C767.607 160.827 767.34 161.827 766.807 162.6C766.273 163.36 765.573 163.953 764.707 164.38C763.853 164.793 762.927 165.08 761.927 165.24C760.94 165.4 759.993 165.48 759.087 165.48C757.753 165.48 756.6 165.36 755.627 165.12C754.653 164.893 753.873 164.633 753.287 164.34C752.713 164.047 752.32 163.82 752.107 163.66L754.287 159.08C754.633 159.36 755.193 159.68 755.967 160.04C756.753 160.4 757.567 160.58 758.407 160.58C759.153 160.58 759.713 160.5 760.087 160.34C760.473 160.167 760.667 159.933 760.667 159.64C760.667 159.413 760.573 159.227 760.387 159.08C760.2 158.933 759.927 158.8 759.567 158.68C759.207 158.56 758.753 158.447 758.207 158.34C757.713 158.247 757.167 158.093 756.567 157.88C755.967 157.653 755.393 157.34 754.847 156.94C754.313 156.54 753.867 156.033 753.507 155.42C753.16 154.793 752.987 154.033 752.987 153.14C752.987 151.993 753.36 151.053 754.107 150.32C754.853 149.573 755.813 149.02 756.987 148.66C758.173 148.287 759.427 148.1 760.747 148.1ZM782.784 148.1C783.971 148.1 785.117 148.333 786.224 148.8C787.344 149.267 788.264 150.013 788.984 151.04C789.717 152.067 790.084 153.407 790.084 155.06V165H783.004V156.2C783.004 155.2 782.784 154.433 782.344 153.9C781.917 153.353 781.304 153.08 780.504 153.08C779.984 153.08 779.484 153.213 779.004 153.48C778.524 153.747 778.137 154.12 777.844 154.6C777.551 155.08 777.404 155.64 777.404 156.28V165H770.324V137.48H777.404V150.8C777.564 150.36 777.897 149.94 778.404 149.54C778.924 149.127 779.564 148.787 780.324 148.52C781.084 148.24 781.904 148.1 782.784 148.1ZM793.398 165V148.58H800.458V165H793.398ZM797.018 146.06C795.938 146.06 795.018 145.68 794.258 144.92C793.512 144.16 793.138 143.253 793.138 142.2C793.138 141.147 793.512 140.233 794.258 139.46C795.018 138.687 795.938 138.3 797.018 138.3C797.725 138.3 798.372 138.48 798.958 138.84C799.545 139.187 800.018 139.653 800.378 140.24C800.738 140.827 800.918 141.48 800.918 142.2C800.918 143.253 800.532 144.16 799.758 144.92C798.998 145.68 798.085 146.06 797.018 146.06ZM811.155 173.32H804.155V148.58H811.215V150.72C811.428 150.36 811.788 149.98 812.295 149.58C812.815 149.167 813.468 148.82 814.255 148.54C815.042 148.247 815.922 148.1 816.895 148.1C818.522 148.1 819.895 148.507 821.015 149.32C822.148 150.12 823.008 151.18 823.595 152.5C824.195 153.82 824.495 155.253 824.495 156.8C824.495 158.347 824.175 159.78 823.535 161.1C822.895 162.42 821.988 163.48 820.815 164.28C819.642 165.08 818.242 165.48 816.615 165.48C815.508 165.48 814.568 165.293 813.795 164.92C813.035 164.533 812.435 164.107 811.995 163.64C811.568 163.16 811.288 162.793 811.155 162.54V173.32ZM817.575 156.8C817.575 156.213 817.435 155.68 817.155 155.2C816.888 154.707 816.515 154.32 816.035 154.04C815.555 153.747 815.015 153.6 814.415 153.6C813.788 153.6 813.235 153.747 812.755 154.04C812.275 154.32 811.895 154.707 811.615 155.2C811.348 155.68 811.215 156.213 811.215 156.8C811.215 157.387 811.348 157.927 811.615 158.42C811.895 158.9 812.275 159.28 812.755 159.56C813.235 159.84 813.788 159.98 814.415 159.98C815.015 159.98 815.555 159.84 816.035 159.56C816.515 159.28 816.888 158.9 817.155 158.42C817.435 157.927 817.575 157.387 817.575 156.8ZM831.541 165.48C830.447 165.48 829.507 165.093 828.721 164.32C827.947 163.533 827.561 162.593 827.561 161.5C827.561 160.38 827.947 159.433 828.721 158.66C829.507 157.873 830.447 157.48 831.541 157.48C832.647 157.48 833.587 157.873 834.361 158.66C835.147 159.433 835.541 160.38 835.541 161.5C835.541 162.593 835.147 163.533 834.361 164.32C833.587 165.093 832.647 165.48 831.541 165.48ZM850.731 173.8C849.411 173.8 848.331 173.673 847.491 173.42C846.638 173.18 845.991 172.933 845.551 172.68L847.651 167.44C847.878 167.613 848.111 167.733 848.351 167.8C848.591 167.88 848.838 167.92 849.091 167.92C849.358 167.92 849.605 167.847 849.831 167.7C850.058 167.553 850.231 167.333 850.351 167.04C850.471 166.747 850.531 166.373 850.531 165.92V148.58H857.611V166.9C857.611 168.18 857.371 169.34 856.891 170.38C856.411 171.42 855.665 172.247 854.651 172.86C853.638 173.487 852.331 173.8 850.731 173.8ZM854.111 146.06C853.045 146.06 852.131 145.68 851.371 144.92C850.625 144.16 850.251 143.253 850.251 142.2C850.251 141.493 850.425 140.847 850.771 140.26C851.118 139.673 851.585 139.2 852.171 138.84C852.758 138.48 853.405 138.3 854.111 138.3C854.818 138.3 855.465 138.48 856.051 138.84C856.651 139.187 857.125 139.653 857.471 140.24C857.831 140.827 858.011 141.48 858.011 142.2C858.011 143.253 857.631 144.16 856.871 144.92C856.111 145.68 855.191 146.06 854.111 146.06ZM868.122 155.92C868.122 157.067 868.322 157.987 868.722 158.68C869.122 159.36 869.836 159.7 870.862 159.7C871.902 159.7 872.622 159.36 873.022 158.68C873.422 157.987 873.622 157.067 873.622 155.92V148.58H880.582V156.64C880.582 158.453 880.202 160.027 879.442 161.36C878.682 162.68 877.576 163.7 876.122 164.42C874.682 165.127 872.929 165.48 870.862 165.48C868.809 165.48 867.062 165.127 865.622 164.42C864.182 163.7 863.076 162.68 862.302 161.36C861.542 160.027 861.162 158.453 861.162 156.64V148.58H868.122V155.92ZM891.606 148.1C892.753 148.1 893.799 148.193 894.746 148.38C895.706 148.567 896.499 148.773 897.126 149C897.766 149.213 898.166 149.38 898.326 149.5L896.106 153.62C895.866 153.447 895.399 153.22 894.706 152.94C894.026 152.647 893.273 152.5 892.446 152.5C891.899 152.5 891.446 152.567 891.086 152.7C890.739 152.82 890.566 153.033 890.566 153.34C890.566 153.633 890.773 153.88 891.186 154.08C891.599 154.267 892.226 154.433 893.066 154.58C893.826 154.727 894.626 154.973 895.466 155.32C896.306 155.653 897.013 156.167 897.586 156.86C898.173 157.54 898.466 158.453 898.466 159.6C898.466 160.827 898.199 161.827 897.666 162.6C897.133 163.36 896.433 163.953 895.566 164.38C894.713 164.793 893.786 165.08 892.786 165.24C891.799 165.4 890.853 165.48 889.946 165.48C888.613 165.48 887.459 165.36 886.486 165.12C885.513 164.893 884.733 164.633 884.146 164.34C883.573 164.047 883.179 163.82 882.966 163.66L885.146 159.08C885.493 159.36 886.053 159.68 886.826 160.04C887.613 160.4 888.426 160.58 889.266 160.58C890.013 160.58 890.573 160.5 890.946 160.34C891.333 160.167 891.526 159.933 891.526 159.64C891.526 159.413 891.433 159.227 891.246 159.08C891.059 158.933 890.786 158.8 890.426 158.68C890.066 158.56 889.613 158.447 889.066 158.34C888.573 158.247 888.026 158.093 887.426 157.88C886.826 157.653 886.253 157.34 885.706 156.94C885.173 156.54 884.726 156.033 884.366 155.42C884.019 154.793 883.846 154.033 883.846 153.14C883.846 151.993 884.219 151.053 884.966 150.32C885.713 149.573 886.673 149.02 887.846 148.66C889.033 148.287 890.286 148.1 891.606 148.1ZM899.71 148.58H902.35V141.84H909.35V148.58H912.83V154.36H909.35V157.56C909.35 158.133 909.423 158.627 909.57 159.04C909.73 159.44 910.063 159.64 910.57 159.64C910.877 159.64 911.15 159.573 911.39 159.44C911.63 159.293 911.777 159.193 911.83 159.14L914.19 164.14C914.083 164.22 913.757 164.373 913.21 164.6C912.677 164.813 911.997 165.013 911.17 165.2C910.357 165.387 909.45 165.48 908.45 165.48C906.677 165.48 905.217 164.993 904.07 164.02C902.923 163.033 902.35 161.52 902.35 159.48V154.36H899.71V148.58ZM934.848 148.1C935.995 148.1 937.042 148.193 937.988 148.38C938.948 148.567 939.742 148.773 940.368 149C941.008 149.213 941.408 149.38 941.568 149.5L939.348 153.62C939.108 153.447 938.642 153.22 937.948 152.94C937.268 152.647 936.515 152.5 935.688 152.5C935.142 152.5 934.688 152.567 934.328 152.7C933.982 152.82 933.808 153.033 933.808 153.34C933.808 153.633 934.015 153.88 934.428 154.08C934.842 154.267 935.468 154.433 936.308 154.58C937.068 154.727 937.868 154.973 938.708 155.32C939.548 155.653 940.255 156.167 940.828 156.86C941.415 157.54 941.708 158.453 941.708 159.6C941.708 160.827 941.442 161.827 940.908 162.6C940.375 163.36 939.675 163.953 938.808 164.38C937.955 164.793 937.028 165.08 936.028 165.24C935.042 165.4 934.095 165.48 933.188 165.48C931.855 165.48 930.702 165.36 929.728 165.12C928.755 164.893 927.975 164.633 927.388 164.34C926.815 164.047 926.422 163.82 926.208 163.66L928.388 159.08C928.735 159.36 929.295 159.68 930.068 160.04C930.855 160.4 931.668 160.58 932.508 160.58C933.255 160.58 933.815 160.5 934.188 160.34C934.575 160.167 934.768 159.933 934.768 159.64C934.768 159.413 934.675 159.227 934.488 159.08C934.302 158.933 934.028 158.8 933.668 158.68C933.308 158.56 932.855 158.447 932.308 158.34C931.815 158.247 931.268 158.093 930.668 157.88C930.068 157.653 929.495 157.34 928.948 156.94C928.415 156.54 927.968 156.033 927.608 155.42C927.262 154.793 927.088 154.033 927.088 153.14C927.088 151.993 927.462 151.053 928.208 150.32C928.955 149.573 929.915 149.02 931.088 148.66C932.275 148.287 933.528 148.1 934.848 148.1ZM944.765 165V148.58H951.825V165H944.765ZM948.385 146.06C947.305 146.06 946.385 145.68 945.625 144.92C944.879 144.16 944.505 143.253 944.505 142.2C944.505 141.147 944.879 140.233 945.625 139.46C946.385 138.687 947.305 138.3 948.385 138.3C949.092 138.3 949.739 138.48 950.325 138.84C950.912 139.187 951.385 139.653 951.745 140.24C952.105 140.827 952.285 141.48 952.285 142.2C952.285 143.253 951.899 144.16 951.125 144.92C950.365 145.68 949.452 146.06 948.385 146.06ZM979.282 148.1C980.535 148.1 981.649 148.353 982.622 148.86C983.609 149.367 984.382 150.153 984.942 151.22C985.515 152.273 985.802 153.64 985.802 155.32V165H978.842V156.32C978.842 155.413 978.695 154.647 978.402 154.02C978.122 153.393 977.522 153.08 976.602 153.08C976.015 153.08 975.522 153.227 975.122 153.52C974.722 153.813 974.422 154.207 974.222 154.7C974.035 155.18 973.942 155.72 973.942 156.32V165H967.462V156.32C967.462 155.413 967.315 154.647 967.022 154.02C966.742 153.393 966.149 153.08 965.242 153.08C964.655 153.08 964.162 153.227 963.762 153.52C963.362 153.8 963.062 154.187 962.862 154.68C962.662 155.16 962.562 155.707 962.562 156.32V165H955.542V148.58H962.562V150.86C962.722 150.447 963.082 150.027 963.642 149.6C964.215 149.173 964.902 148.82 965.702 148.54C966.515 148.247 967.362 148.1 968.242 148.1C969.215 148.1 970.022 148.22 970.662 148.46C971.315 148.7 971.855 149.04 972.282 149.48C972.722 149.92 973.089 150.427 973.382 151C973.569 150.56 973.942 150.12 974.502 149.68C975.062 149.227 975.762 148.853 976.602 148.56C977.442 148.253 978.335 148.1 979.282 148.1ZM995.764 173.32H988.764V148.58H995.824V150.72C996.038 150.36 996.398 149.98 996.904 149.58C997.424 149.167 998.078 148.82 998.864 148.54C999.651 148.247 1000.53 148.1 1001.5 148.1C1003.13 148.1 1004.5 148.507 1005.62 149.32C1006.76 150.12 1007.62 151.18 1008.2 152.5C1008.8 153.82 1009.1 155.253 1009.1 156.8C1009.1 158.347 1008.78 159.78 1008.14 161.1C1007.5 162.42 1006.6 163.48 1005.42 164.28C1004.25 165.08 1002.85 165.48 1001.22 165.48C1000.12 165.48 999.178 165.293 998.404 164.92C997.644 164.533 997.044 164.107 996.604 163.64C996.178 163.16 995.898 162.793 995.764 162.54V173.32ZM1002.18 156.8C1002.18 156.213 1002.04 155.68 1001.76 155.2C1001.5 154.707 1001.12 154.32 1000.64 154.04C1000.16 153.747 999.624 153.6 999.024 153.6C998.398 153.6 997.844 153.747 997.364 154.04C996.884 154.32 996.504 154.707 996.224 155.2C995.958 155.68 995.824 156.213 995.824 156.8C995.824 157.387 995.958 157.927 996.224 158.42C996.504 158.9 996.884 159.28 997.364 159.56C997.844 159.84 998.398 159.98 999.024 159.98C999.624 159.98 1000.16 159.84 1000.64 159.56C1001.12 159.28 1001.5 158.9 1001.76 158.42C1002.04 157.927 1002.18 157.387 1002.18 156.8ZM1018.95 165H1011.85V137.48H1018.95V165ZM1028.32 158.22C1028.37 158.66 1028.54 159.047 1028.84 159.38C1029.14 159.7 1029.54 159.953 1030.04 160.14C1030.54 160.313 1031.14 160.4 1031.82 160.4C1032.48 160.4 1033.11 160.353 1033.7 160.26C1034.28 160.153 1034.8 160.013 1035.26 159.84C1035.72 159.667 1036.09 159.473 1036.36 159.26L1038.98 163.66C1038.68 163.913 1038.24 164.18 1037.66 164.46C1037.07 164.74 1036.26 164.98 1035.24 165.18C1034.22 165.38 1032.92 165.48 1031.34 165.48C1029.5 165.48 1027.84 165.153 1026.38 164.5C1024.91 163.847 1023.75 162.867 1022.9 161.56C1022.04 160.24 1021.62 158.593 1021.62 156.62C1021.62 155.02 1021.98 153.58 1022.7 152.3C1023.42 151.007 1024.46 149.987 1025.82 149.24C1027.18 148.48 1028.82 148.1 1030.76 148.1C1032.61 148.1 1034.22 148.427 1035.58 149.08C1036.94 149.72 1037.98 150.693 1038.72 152C1039.45 153.307 1039.82 154.96 1039.82 156.96C1039.82 157.067 1039.81 157.28 1039.8 157.6C1039.8 157.92 1039.78 158.127 1039.76 158.22H1028.32ZM1033.16 155.02C1033.14 154.58 1033.04 154.187 1032.86 153.84C1032.68 153.493 1032.43 153.22 1032.1 153.02C1031.76 152.82 1031.36 152.72 1030.88 152.72C1030.41 152.72 1030 152.813 1029.64 153C1029.28 153.187 1029 153.453 1028.8 153.8C1028.6 154.133 1028.48 154.54 1028.46 155.02H1033.16ZM1046.93 165.48C1045.84 165.48 1044.9 165.093 1044.11 164.32C1043.34 163.533 1042.95 162.593 1042.95 161.5C1042.95 160.38 1043.34 159.433 1044.11 158.66C1044.9 157.873 1045.84 157.48 1046.93 157.48C1048.04 157.48 1048.98 157.873 1049.75 158.66C1050.54 159.433 1050.93 160.38 1050.93 161.5C1050.93 162.593 1050.54 163.533 1049.75 164.32C1048.98 165.093 1048.04 165.48 1046.93 165.48Z" fill="url(#paint2_linear_40_10)"/>
<defs>
<filter id="filter0_d_40_10" x="34" y="34" width="1432" height="89.7" filterUnits="userSpaceOnUse" color-interpolation-filters="sRGB">
<feFlood flood-opacity="0" result="BackgroundImageFix"/>
<feColorMatrix in="SourceAlpha" type="matrix" values="0 0 0 0 0 0 0 0 0 0 0 0 0 0 0 0 0 0 127 0" result="hardAlpha"/>
<feOffset/>
<feGaussianBlur stdDeviation="1.5"/>
<feComposite in2="hardAlpha" operator="out"/>
<feColorMatrix type="matrix" values="0 0 0 0 0 0 0 0 0 0 0 0 0 0 0 0 0 0 0.25 0"/>
<feBlend mode="normal" in2="BackgroundImageFix" result="effect1_dropShadow_40_10"/>
<feBlend mode="normal" in="SourceGraphic" in2="effect1_dropShadow_40_10" result="shape"/>
</filter>
<linearGradient id="paint0_linear_40_10" x1="750" y1="0" x2="750" y2="227" gradientUnits="userSpaceOnUse">
<stop stop-color="#640101"/>
<stop offset="1" stop-color="#180202"/>
</linearGradient>
<linearGradient id="paint1_linear_40_10" x1="750" y1="43" x2="750" y2="111" gradientUnits="userSpaceOnUse">
<stop stop-color="#FF4242"/>
<stop offset="1" stop-color="#B60303"/>
</linearGradient>
<linearGradient id="paint2_linear_40_10" x1="750" y1="137" x2="750" y2="164" gradientUnits="userSpaceOnUse">
<stop stop-color="white"/>
<stop offset="1" stop-color="#CDCDCD"/>
</linearGradient>
</defs>
</svg>
