<svg width="100" height="100" viewBox="0 0 100 100" fill="none" xmlns="http://www.w3.org/2000/svg">
<g clip-path="url(#clip0_33_16)">
<circle cx="50" cy="50" r="50" fill="url(#paint0_linear_33_16)"/>
<circle cx="50" cy="50" r="48" stroke="white" stroke-opacity="0.15" stroke-width="4"/>
<g filter="url(#filter0_d_33_16)">
<g filter="url(#filter1_d_33_16)">
<g clip-path="url(#clip1_33_16)">
<path d="M66.5585 28.8799C66.0252 28.8887 53.432 29.168 48.1696 36.8961L38.9038 53.4133C38.2218 54.6198 38.5974 56.1568 39.7546 56.911L51.2152 64.5164C51.6649 64.813 52.1812 64.9547 52.6933 64.9547C53.4818 64.9547 54.2632 64.6174 54.7833 63.9785L66.8042 49.2814C66.821 49.2621 66.8366 49.2424 66.8507 49.2213C68.7796 46.393 69.3732 43.0276 69.36 39.8799C69.3371 34.4934 67.5144 29.7465 67.3921 29.4368C67.2574 29.0971 66.9087 28.9116 66.5585 28.8799ZM57.4732 38.5599C58.4054 38.5579 59.3483 38.8238 60.1802 39.3832C62.3987 40.8748 62.9883 43.8816 61.4967 46.1C60.0051 48.3185 56.9984 48.9082 54.7799 47.4166C52.5614 45.925 51.9717 42.9182 53.4633 40.6997C54.3956 39.3132 55.9195 38.5632 57.4732 38.5599ZM41.7638 44.7285C37.1966 44.8429 33.6049 46.6828 30.8153 50.3436C30.6129 50.6164 30.5869 50.9674 30.7277 51.2666C30.8773 51.5658 31.1856 51.7599 31.52 51.7599H33.06C34.292 51.7599 35.8844 51.8828 37.4772 52.358L41.7638 44.7285ZM61.5982 58.3943C58.6414 61.9935 55.7899 65.4609 55.5963 65.6457C56.7931 67.3793 57.4626 69.175 57.9114 70.3894L57.9733 70.5475C58.0877 70.8467 58.3509 71.0673 58.6677 71.1113C58.7117 71.1201 58.756 71.1199 58.8 71.1199C59.0728 71.1199 59.3375 70.9961 59.5047 70.7761C61.4759 68.1713 62.32 65.6463 62.32 62.3199C62.32 60.8679 62.0118 59.5383 61.5982 58.3943ZM39.813 59.0577C37.921 62.1729 36.46 68.6965 39.2338 70.5991C39.7407 70.9458 40.3434 71.1216 41.035 71.1216C41.3334 71.1216 41.6486 71.0879 41.9786 71.0236C44.6899 70.4912 48.0575 67.8132 49.6116 65.5683L47.7863 64.3549C46.08 66.0031 43.4918 67.4074 41.9597 66.3813C40.4276 65.3482 40.7063 62.4265 41.5696 60.2247L39.813 59.0577Z" fill="url(#paint1_linear_33_16)"/>
</g>
</g>
</g>
</g>
<defs>
<filter id="filter0_d_33_16" x="13" y="13" width="74" height="74" filterUnits="userSpaceOnUse" color-interpolation-filters="sRGB">
<feFlood flood-opacity="0" result="BackgroundImageFix"/>
<feColorMatrix in="SourceAlpha" type="matrix" values="0 0 0 0 0 0 0 0 0 0 0 0 0 0 0 0 0 0 127 0" result="hardAlpha"/>
<feOffset/>
<feGaussianBlur stdDeviation="1.5"/>
<feComposite in2="hardAlpha" operator="out"/>
<feColorMatrix type="matrix" values="0 0 0 0 0 0 0 0 0 0 0 0 0 0 0 0 0 0 0.25 0"/>
<feBlend mode="normal" in2="BackgroundImageFix" result="effect1_dropShadow_33_16"/>
<feBlend mode="normal" in="SourceGraphic" in2="effect1_dropShadow_33_16" result="shape"/>
</filter>
<filter id="filter1_d_33_16" x="13" y="13" width="74" height="74" filterUnits="userSpaceOnUse" color-interpolation-filters="sRGB">
<feFlood flood-opacity="0" result="BackgroundImageFix"/>
<feColorMatrix in="SourceAlpha" type="matrix" values="0 0 0 0 0 0 0 0 0 0 0 0 0 0 0 0 0 0 127 0" result="hardAlpha"/>
<feOffset/>
<feGaussianBlur stdDeviation="1.5"/>
<feComposite in2="hardAlpha" operator="out"/>
<feColorMatrix type="matrix" values="0 0 0 0 0 0 0 0 0 0 0 0 0 0 0 0 0 0 0.25 0"/>
<feBlend mode="normal" in2="BackgroundImageFix" result="effect1_dropShadow_33_16"/>
<feBlend mode="normal" in="SourceGraphic" in2="effect1_dropShadow_33_16" result="shape"/>
</filter>
<linearGradient id="paint0_linear_33_16" x1="50" y1="0" x2="50" y2="100" gradientUnits="userSpaceOnUse">
<stop stop-color="#640101"/>
<stop offset="1" stop-color="#180202"/>
</linearGradient>
<linearGradient id="paint1_linear_33_16" x1="49.9998" y1="28.8799" x2="49.9998" y2="71.1216" gradientUnits="userSpaceOnUse">
<stop stop-color="#FF4242"/>
<stop offset="1" stop-color="#B60303"/>
</linearGradient>
<clipPath id="clip0_33_16">
<rect width="100" height="100" fill="white"/>
</clipPath>
<clipPath id="clip1_33_16">
<rect width="44" height="44" fill="white" transform="translate(28 28)"/>
</clipPath>
</defs>
</svg>
